<svg width="29" height="29" viewBox="0 0 29 29" fill="none" xmlns="http://www.w3.org/2000/svg">
<g clip-path="url(#clip0_62_10)">
<path d="M19.1803 6.54078C19.3128 6.3198 19.2686 6.01045 19.0477 5.78947L18.1196 4.8614C17.3683 4.1101 16.2193 4.1101 15.4679 4.8614L4.86135 15.468C4.11005 16.2193 4.11005 17.3683 4.86135 18.1196L5.78943 19.0477C6.0104 19.2687 6.31976 19.3129 6.54073 19.1803C7.33622 18.7384 8.2201 18.8268 8.83882 19.4455C9.45754 20.0642 9.54593 20.9481 9.10399 21.7436C8.97141 21.9645 9.0156 22.2739 9.23657 22.4949L10.1646 23.4229C10.9159 24.1743 12.065 24.1743 12.8163 23.4229L23.4229 12.8163C24.1742 12.065 24.1742 10.916 23.4229 10.1647L22.4948 9.23662C22.2739 9.01565 21.9645 8.97145 21.7435 9.10404C20.948 9.54598 20.0641 9.45759 19.4454 8.83887C18.8267 8.22015 18.7383 7.33627 19.1803 6.54078ZM16.3518 11.3137V13.1699L17.8544 14.2306C18.0754 14.3631 18.1638 14.6283 18.1196 14.8493C18.0754 14.9819 18.0312 15.1144 17.9428 15.2028C17.8544 15.2912 17.8102 15.3354 17.6777 15.3796L15.8657 15.8657L15.3354 17.6335C15.2912 17.8545 15.1144 18.0313 14.805 18.0755C14.5841 18.1196 14.3189 18.0313 14.1863 17.8103L13.1257 16.3077L11.2695 16.3077C11.0043 16.3077 10.7834 16.1751 10.695 15.9983C10.5624 15.7774 10.6066 15.5564 10.7392 15.3354L11.844 13.877L11.2253 12.1092C11.0485 11.6673 11.5789 11.137 12.0208 11.3137L13.7886 11.9325L15.247 10.8276C15.4679 10.695 15.6889 10.6508 15.9099 10.7834C16.2193 10.8276 16.3518 11.0486 16.3518 11.3137Z" fill="white"/>
</g>
<defs>
<clipPath id="clip0_62_10">
<rect width="20" height="20" fill="white" transform="translate(0 14.1422) rotate(-45)"/>
</clipPath>
</defs>
</svg>
