<svg width="24" height="24" viewBox="0 0 24 24" fill="none" xmlns="http://www.w3.org/2000/svg">
<path d="M21 11.25V19.5C21 19.8978 20.842 20.2794 20.5607 20.5607C20.2794 20.842 19.8978 21 19.5 21H5.25C4.85218 21 4.47064 20.842 4.18934 20.5607C3.90804 20.2794 3.75 19.8978 3.75 19.5V11.25M12 4.875C12 4.35583 11.846 3.84831 11.5576 3.41663C11.2692 2.98495 10.8592 2.6485 10.3795 2.44982C9.89989 2.25114 9.37209 2.19915 8.86289 2.30044C8.35369 2.40173 7.88596 2.65173 7.51884 3.01885C7.15173 3.38596 6.90172 3.85369 6.80044 4.36289C6.69915 4.87209 6.75114 5.39989 6.94982 5.87954C7.1485 6.3592 7.48495 6.76917 7.91663 7.05761C8.34831 7.34605 8.85582 7.5 9.375 7.5H12M12 4.875V7.5M12 4.875C12 4.35583 12.154 3.84831 12.4424 3.41663C12.7308 2.98495 13.1408 2.6485 13.6205 2.44982C14.1001 2.25114 14.6279 2.19915 15.1371 2.30044C15.6463 2.40173 16.114 2.65173 16.4812 3.01885C16.8483 3.38596 17.0983 3.85369 17.1996 4.36289C17.3008 4.87209 17.2489 5.39989 17.0502 5.87954C16.8515 6.3592 16.5151 6.76917 16.0834 7.05761C15.6517 7.34605 15.1442 7.5 14.625 7.5H12M12 7.5V21M3.375 11.25H21.375C21.996 11.25 22.5 10.746 22.5 10.125V8.625C22.5 8.004 21.996 7.5 21.375 7.5H3.375C2.754 7.5 2.25 8.004 2.25 8.625V10.125C2.25 10.746 2.754 11.25 3.375 11.25Z" stroke="#5D14D0" stroke-width="1.5" stroke-linecap="round" stroke-linejoin="round"/>
</svg>
