<svg width="18" height="20" viewBox="0 0 18 20" fill="none" xmlns="http://www.w3.org/2000/svg">
<path d="M0.00676782 6.77235C-0.0494508 5.65589 0.245895 4.55308 0.843553 3.62842L0.999237 3.40106L1.0121 3.3886L1.12019 3.26178L1.23342 3.13229L1.24628 3.11894C1.46245 2.89733 1.70177 2.70242 1.95997 2.53599L2.03288 2.48982L2.10579 2.44699L2.27735 2.3482C2.34683 2.31527 2.42232 2.27611 2.4918 2.24318C2.54241 2.2236 2.59302 2.19779 2.64363 2.17821C2.73885 2.13816 2.84007 2.099 2.94129 2.06608C2.9756 2.04917 3.01163 2.03582 3.04851 2.02692L3.08947 2.01045L3.13429 1.99399C3.59578 1.85604 4.07015 1.76081 4.54965 1.7172L4.5 1.72302V0.728378C4.5 0.329572 4.82169 0.00711368 5.21955 0.00711368C5.61741 0.00711368 5.94 0.329572 5.94 0.728378V3.87212C5.94 4.27093 5.61741 4.59428 5.21955 4.59428C4.82169 4.59428 4.5 4.27093 4.5 3.87212L4.50005 3.14531C4.0277 3.1926 3.56389 3.31013 3.124 3.49629C1.98883 4.00697 1.44745 4.9795 1.39615 6.52071L1.39211 6.7688V7.15594H16.6085V6.75901C16.6377 6.04523 16.4945 5.33502 16.1908 4.69333C15.8991 4.14421 15.4325 3.7179 14.8689 3.4865C14.51 3.332 14.1341 3.2242 13.75 3.16539L13.5 3.13502L13.5 3.86849C13.5 4.26558 13.1778 4.5872 12.78 4.5872C12.3822 4.5872 12.06 4.26558 12.06 3.86849L12.06 3.08102L5.947 3.08156V1.65134L12.06 1.65102L12.06 0.724147C12.0564 0.327061 12.3768 0.00274411 12.7746 3.20036e-05C13.1724 -0.00264619 13.4973 0.31628 13.5 0.713366L13.5006 1.71748C13.85 1.75196 14.1965 1.8129 14.5375 1.89999L14.8767 1.99577C14.9041 2.00111 14.9247 2.00823 14.9624 2.02158C15.0002 2.03493 15.0319 2.04827 15.0697 2.06073C15.17 2.09366 15.2635 2.13282 15.3605 2.17287C15.4162 2.19245 15.4677 2.21826 15.5114 2.23784C15.5869 2.27077 15.6641 2.30993 15.7259 2.34286C15.7893 2.37579 15.8503 2.41228 15.9034 2.44165C15.9566 2.47102 15.9978 2.50395 16.0424 2.53065C16.2367 2.65614 16.4213 2.79765 16.5938 2.9533L16.7621 3.1136L16.7698 3.12695L16.8874 3.25177L16.998 3.38326L17.004 3.39572C17.6509 4.29037 17.9989 5.37688 18 6.49004L17.993 6.7688V7.15594H18V14.9102C18 18.2916 16.1116 20 12.3691 20H5.62232C1.88841 20 1.34096e-09 18.2916 1.34096e-09 14.9102V7.15594H0.00676782V6.77235ZM13.1159 14.2463C12.6524 14.2463 12.2833 14.6269 12.2833 15.0961C12.2918 15.5652 12.6609 15.9459 13.1159 15.9459C13.5708 15.9459 13.9399 15.5652 13.9399 15.0961C13.9399 14.6269 13.5708 14.2463 13.1159 14.2463ZM9.00429 14.2374C8.54077 14.2463 8.17167 14.6269 8.17167 15.0961C8.17167 15.5652 8.54936 15.9459 9.00429 15.9459C9.45923 15.9459 9.82833 15.5652 9.82833 15.0872C9.81974 14.6269 9.45923 14.2463 9.00429 14.2374ZM4.88412 14.2374C4.4206 14.2374 4.0515 14.6269 4.06009 15.0961C4.06009 15.5652 4.42918 15.9459 4.88412 15.9459C5.33906 15.9459 5.70815 15.5564 5.70815 15.0872C5.70815 14.6181 5.33906 14.2374 4.88412 14.2374ZM13.1159 10.617C12.6524 10.617 12.2918 10.9977 12.2918 11.4668C12.2918 11.936 12.6609 12.3166 13.1159 12.3166C13.5708 12.3166 13.9399 11.936 13.9399 11.4668C13.9399 10.9977 13.5708 10.617 13.1159 10.617ZM9.00429 10.6082C8.54077 10.617 8.17167 10.9977 8.17167 11.4668C8.17167 11.936 8.54936 12.3166 9.00429 12.3166C9.45923 12.3166 9.82833 11.936 9.82833 11.458C9.82833 10.9977 9.45923 10.617 9.00429 10.6082ZM4.8927 10.6082C4.42918 10.6082 4.06009 10.9977 4.06009 11.4668C4.06009 11.936 4.42918 12.3166 4.88412 12.3166C5.34764 12.3166 5.71674 11.9271 5.70815 11.458C5.70815 10.9888 5.33906 10.6082 4.8927 10.6082Z" fill="#5D14D0"/>
</svg>
