<svg width="24" height="24" viewBox="0 0 24 24" fill="none" xmlns="http://www.w3.org/2000/svg">
<path fill-rule="evenodd" clip-rule="evenodd" d="M5.47007 5.47C5.6107 5.32955 5.80132 5.25066 6.00007 5.25066C6.19882 5.25066 6.38945 5.32955 6.53007 5.47L12.0001 10.94L17.4701 5.47C17.5387 5.39631 17.6215 5.33721 17.7135 5.29622C17.8055 5.25523 17.9048 5.23319 18.0056 5.23141C18.1063 5.22963 18.2063 5.24816 18.2997 5.28588C18.3931 5.3236 18.4779 5.37974 18.5491 5.45096C18.6203 5.52218 18.6765 5.60701 18.7142 5.7004C18.7519 5.79379 18.7704 5.89382 18.7687 5.99452C18.7669 6.09523 18.7448 6.19454 18.7039 6.28654C18.6629 6.37854 18.6038 6.46134 18.5301 6.53L13.0601 12L18.5301 17.47C18.6038 17.5387 18.6629 17.6215 18.7039 17.7135C18.7448 17.8055 18.7669 17.9048 18.7687 18.0055C18.7704 18.1062 18.7519 18.2062 18.7142 18.2996C18.6765 18.393 18.6203 18.4778 18.5491 18.549C18.4779 18.6203 18.3931 18.6764 18.2997 18.7141C18.2063 18.7518 18.1063 18.7704 18.0056 18.7686C17.9048 18.7668 17.8055 18.7448 17.7135 18.7038C17.6215 18.6628 17.5387 18.6037 17.4701 18.53L12.0001 13.06L6.53007 18.53C6.3879 18.6625 6.19985 18.7346 6.00555 18.7312C5.81125 18.7277 5.62586 18.649 5.48845 18.5116C5.35104 18.3742 5.27233 18.1888 5.2689 17.9945C5.26547 17.8002 5.33759 17.6122 5.47007 17.47L10.9401 12L5.47007 6.53C5.32962 6.38938 5.25073 6.19875 5.25073 6C5.25073 5.80125 5.32962 5.61063 5.47007 5.47Z" fill="black"/>
</svg>
