<svg width="20" height="20" viewBox="0 0 20 20" fill="none" xmlns="http://www.w3.org/2000/svg">
<path d="M17.1907 13.3324C17.1259 13.2543 17.0622 13.1762 16.9997 13.1008C16.1403 12.0613 15.6204 11.434 15.6204 8.49141C15.6204 6.96797 15.2559 5.71797 14.5376 4.78047C14.0079 4.08789 13.2919 3.5625 12.3481 3.17422C12.336 3.16746 12.3251 3.1586 12.3161 3.14805C11.9766 2.01133 11.0477 1.25 10.0001 1.25C8.95242 1.25 8.0239 2.01133 7.68445 3.14687C7.67539 3.15704 7.6647 3.16562 7.65281 3.17227C5.45047 4.07891 4.38015 5.81836 4.38015 8.49023C4.38015 11.434 3.86101 12.0613 3.00086 13.0996C2.93836 13.175 2.87468 13.2516 2.80984 13.3313C2.64234 13.5333 2.53622 13.779 2.50403 14.0394C2.47184 14.2999 2.51493 14.5641 2.6282 14.8008C2.86922 15.3086 3.38289 15.6238 3.96922 15.6238H16.0352C16.6188 15.6238 17.129 15.309 17.3708 14.8035C17.4845 14.5668 17.528 14.3023 17.4961 14.0416C17.4642 13.7809 17.3582 13.5348 17.1907 13.3324ZM10.0001 18.75C10.5645 18.7495 11.1184 18.5963 11.6028 18.3066C12.0872 18.0168 12.4842 17.6014 12.7516 17.1043C12.7642 17.0805 12.7705 17.0538 12.7697 17.0269C12.7689 16.9999 12.7612 16.9736 12.7473 16.9506C12.7334 16.9275 12.7137 16.9084 12.6903 16.8952C12.6668 16.8819 12.6403 16.875 12.6134 16.875H7.38758C7.36059 16.8749 7.33405 16.8818 7.31052 16.895C7.28699 16.9082 7.26729 16.9273 7.25333 16.9504C7.23936 16.9735 7.23162 16.9998 7.23084 17.0268C7.23007 17.0537 7.23629 17.0804 7.2489 17.1043C7.5163 17.6013 7.91322 18.0167 8.39758 18.3065C8.88194 18.5962 9.43567 18.7495 10.0001 18.75Z" fill="white"/>
</svg>
