<svg width="17" height="17" viewBox="0 0 17 17" fill="none" xmlns="http://www.w3.org/2000/svg">
<path fill-rule="evenodd" clip-rule="evenodd" d="M3.60902 3.52631C3.21038 3.52631 2.88722 3.84947 2.88722 4.24811V6.41352H0.721804C0.323164 6.41352 0 6.73668 0 7.13533V16.2782C0 16.6768 0.323161 17 0.721804 17H9.86466C10.2633 17 10.5865 16.6768 10.5865 16.2782V14.1128H12.7519C13.1505 14.1128 13.4737 13.7896 13.4737 13.391V4.24811C13.4737 3.84947 13.1505 3.52631 12.7519 3.52631H3.60902ZM10.5865 13.1504V7.13533C10.5865 6.73668 10.2633 6.41352 9.86466 6.41352H3.84962V4.48871H12.5113V13.1504H10.5865ZM0.962406 16.0376V7.37593H9.62406V16.0376H0.962406Z" fill="#5D14D0"/>
<path d="M5.05261 3.52632V1.5C5.05261 1.22386 5.27647 1 5.55261 1H15.5C15.7761 1 16 1.22386 16 1.5V11.4474C16 11.7235 15.7761 11.9474 15.5 11.9474H13.4737" stroke="#5D14D0"/>
</svg>
