<svg width="21" height="20" viewBox="0 0 21 20" fill="none" xmlns="http://www.w3.org/2000/svg">
<path d="M10.0988 0.291322C10.2251 -0.0971074 10.7749 -0.0971074 10.9012 0.291322L13.0907 7.02521C13.1472 7.19891 13.3092 7.31655 13.492 7.31655H20.5773C20.986 7.31655 21.1559 7.8392 20.8253 8.07925L15.0932 12.241C14.9453 12.3483 14.8834 12.5386 14.9399 12.7124L17.1294 19.4462C17.2557 19.8346 16.8108 20.1576 16.4802 19.9176L10.748 15.7558C10.6001 15.6485 10.3999 15.6485 10.252 15.7558L4.51982 19.9176C4.18918 20.1576 3.74431 19.8346 3.8706 19.4462L5.69827 13.8252C5.7347 13.7132 5.81639 13.6214 5.92358 13.5723L11.4168 11.0538L11.7012 10.9322C12.1642 10.7343 11.9537 10.0384 11.4586 10.13L11.4168 10.1377L5.39523 11.6807C5.27349 11.7119 5.14415 11.6872 5.04248 11.6134L0.174715 8.07925C-0.155922 7.8392 0.014007 7.31655 0.422692 7.31655H7.50803C7.69079 7.31655 7.85277 7.19891 7.90927 7.02521L10.0988 0.291322Z" fill="url(#paint0_linear_239_1359)"/>
<defs>
<linearGradient id="paint0_linear_239_1359" x1="10.5167" y1="0.654094" x2="10.5167" y2="19.2498" gradientUnits="userSpaceOnUse">
<stop stop-color="#7690F7"/>
<stop offset="0.511057" stop-color="#A869E4"/>
<stop offset="1" stop-color="#BE65B5"/>
</linearGradient>
</defs>
</svg>
