<svg width="14" height="8" viewBox="0 0 14 8" fill="none" xmlns="http://www.w3.org/2000/svg">
<path fill-rule="evenodd" clip-rule="evenodd" d="M7.44163 7.56664C7.32444 7.68368 7.16559 7.74942 6.99996 7.74942C6.83434 7.74942 6.67549 7.68368 6.5583 7.56664L0.308297 1.31664C0.197898 1.19816 0.137795 1.04146 0.140653 0.879538C0.14351 0.717621 0.209103 0.563132 0.323613 0.448622C0.438125 0.334111 0.592613 0.268518 0.75453 0.265661C0.916448 0.262804 1.07315 0.322906 1.19163 0.433306L6.99996 6.24164L12.8083 0.433307C12.9268 0.322907 13.0835 0.262804 13.2454 0.265661C13.4073 0.268518 13.5618 0.334111 13.6763 0.448622C13.7908 0.563133 13.8564 0.717621 13.8593 0.879539C13.8621 1.04146 13.802 1.19816 13.6916 1.31664L7.44163 7.56664Z" fill="#2A2A2A"/>
</svg>
