<svg width="24" height="23" viewBox="0 0 24 23" fill="none" xmlns="http://www.w3.org/2000/svg">
<g clip-path="url(#clip0_154_1895)">
<path d="M23.9594 11.5C23.9594 5.14873 18.7118 0 12.2385 0C5.76522 0 0.517578 5.14873 0.517578 11.5C0.517578 17.8513 5.76522 23 12.2385 23C18.7118 23 23.9594 17.8513 23.9594 11.5Z" fill="#5D14D0"/>
<path d="M12.6651 17.25H8.61606C7.97676 17.25 7.60381 17.25 7.23086 17.0932C6.91122 16.9364 6.69812 16.7273 6.53827 16.4136C6.37842 16.0477 6.37842 15.6818 6.37842 15.0545V11.0818C6.37842 10.4545 6.37842 10.0886 6.53827 9.7227C6.69812 9.40908 6.91122 9.2 7.23086 9.04316C7.60381 8.88638 7.97676 8.88638 8.61606 8.88638H9.57505V7.94546C9.57505 7.31816 9.57505 6.9523 9.7349 6.58638C9.8947 6.2727 10.1079 6.06362 10.4275 5.90684C10.8004 5.75 11.1733 5.75 11.8127 5.75H15.8617C16.5011 5.75 16.874 5.75 17.247 5.90684C17.5666 6.06362 17.7797 6.2727 17.9396 6.58638C18.0993 6.9523 18.0993 7.31816 18.0993 7.94546V11.9182C18.0993 12.5455 18.0993 12.9114 17.9396 13.2773C17.7797 13.5909 17.5666 13.8 17.247 13.9568C16.874 14.1136 16.5011 14.1136 15.8617 14.1136H14.9028V15.0545C14.9028 15.6818 14.9028 16.0477 14.7429 16.4136C14.5831 16.7273 14.37 16.9364 14.0503 17.0932C13.6774 17.25 13.3044 17.25 12.6651 17.25ZM8.61606 9.93184C8.13656 9.93184 7.87021 9.93184 7.71036 9.98408C7.65706 10.0364 7.55051 10.1409 7.49726 10.1932C7.44396 10.35 7.44396 10.6114 7.44396 11.0818V15.0545C7.44396 15.525 7.44396 15.7864 7.49726 15.9432C7.55051 16.0477 7.60381 16.1 7.71036 16.1523C7.87021 16.2045 8.13656 16.2045 8.61606 16.2045H12.6651C13.1446 16.2045 13.411 16.2045 13.5708 16.1523C13.6774 16.1 13.7307 16.0477 13.7839 15.9432C13.8372 15.8386 13.8372 15.525 13.8372 15.0545V11.0818C13.8372 10.6114 13.8372 10.35 13.7839 10.1932C13.7307 10.0886 13.6774 10.0364 13.5708 9.98408C13.411 9.93184 13.1446 9.93184 12.6651 9.93184H8.61606ZM14.9028 13.0682H15.8617C16.3412 13.0682 16.6076 13.0682 16.7675 13.0159C16.874 12.9636 16.9273 12.9114 16.9806 12.8068C17.0338 12.7023 17.0338 12.3886 17.0338 11.9182V7.94546C17.0338 7.475 17.0338 7.21362 16.9806 7.05684C16.9273 6.9523 16.874 6.9 16.7675 6.8477C16.6076 6.79546 16.3412 6.79546 15.8617 6.79546H11.8127C11.3332 6.79546 11.0668 6.79546 10.907 6.8477C10.8537 6.9 10.7471 7.00454 10.6939 7.05684C10.6406 7.21362 10.6406 7.475 10.6406 7.94546V8.88638H12.6651C13.3044 8.88638 13.6774 8.88638 14.0503 9.04316C14.37 9.2 14.5831 9.40908 14.7429 9.7227C14.9028 10.0886 14.9028 10.4545 14.9028 11.0818V13.0682Z" fill="white"/>
</g>
<defs>
<clipPath id="clip0_154_1895">
<rect width="24" height="23" fill="white"/>
</clipPath>
</defs>
</svg>
