<svg width="16" height="16" viewBox="0 0 16 16" fill="none" xmlns="http://www.w3.org/2000/svg">
  <path
    d="M11.2929 2.29289C11.6834 1.90237 12.3166 1.90237 12.7071 2.29289L13.7071 3.29289C14.0976 3.68342 14.0976 4.31658 13.7071 4.70711L5.70711 12.7071C5.51957 12.8946 5.26522 13 5 13H3C2.44772 13 2 12.5523 2 12V10C2 9.73478 2.10536 9.48043 2.29289 9.29289L10.2929 1.29289C10.6834 0.902369 11.3166 0.902369 11.7071 1.29289L11.2929 2.29289ZM11 5.41421L10.5858 5L3 12.5858V12H3.41421L11 4.41421V5.41421Z"
    fill="#999" />
</svg>