<svg width="12" height="12" viewBox="0 0 12 12" fill="none" xmlns="http://www.w3.org/2000/svg">
<path d="M6.99404 8.99976H4.74398C4.64409 8.99976 4.55655 9.03749 4.48155 9.11235C4.40649 9.18742 4.36902 9.27483 4.36902 9.37485V11.625C4.36902 11.725 4.40662 11.8126 4.48155 11.8875C4.55655 11.9623 4.644 12 4.74398 12H6.99404C7.09393 12 7.1817 11.9624 7.2564 11.8875C7.3316 11.8126 7.36913 11.725 7.36913 11.625V9.37485C7.36913 9.27483 7.3317 9.18742 7.2564 9.11235C7.1817 9.03729 7.09393 8.99976 6.99404 8.99976Z" fill="#5D14D0"/>
<path d="M9.94744 2.26414C9.69111 1.79201 9.35995 1.39376 8.95359 1.06868C8.5475 0.743724 8.09093 0.484214 7.58478 0.290541C7.07854 0.0969347 6.57544 0 6.07534 0C4.17542 0 2.72544 0.831267 1.72536 2.49383C1.67541 2.57504 1.65817 2.66252 1.67377 2.7563C1.68947 2.84995 1.7379 2.9281 1.81914 2.99059L3.3567 4.16258C3.43794 4.21249 3.51609 4.23748 3.59112 4.23748C3.70365 4.23748 3.80046 4.1874 3.88179 4.08741C4.33173 3.52498 4.66617 3.16561 4.8849 3.00928C5.1537 2.82808 5.4911 2.73752 5.89736 2.73752C6.2786 2.73752 6.61445 2.83754 6.90519 3.03738C7.1958 3.23743 7.34097 3.4687 7.34097 3.7312C7.34097 4.02482 7.26298 4.26243 7.10668 4.44369C6.95047 4.62489 6.68788 4.79981 6.31905 4.96862C5.83168 5.18735 5.38461 5.52646 4.97855 5.98585C4.57219 6.44527 4.36916 6.93434 4.36916 7.45307V7.87492C4.36916 7.99379 4.4018 8.11092 4.46754 8.22654C4.53321 8.34226 4.61284 8.40002 4.70666 8.40002H6.95668C7.0567 8.40002 7.14411 8.35168 7.21918 8.25449C7.29401 8.15788 7.33168 8.05628 7.33168 7.95019C7.33168 7.79398 7.41761 7.58438 7.58935 7.32202C7.76125 7.05952 7.97525 6.85619 8.2317 6.7124C8.47532 6.57494 8.66578 6.46415 8.80343 6.37966C8.94121 6.2954 9.12077 6.15916 9.34271 5.97179C9.56456 5.78423 9.73646 5.59827 9.85818 5.41396C9.98011 5.22961 10.0896 4.99049 10.1864 4.69667C10.2835 4.40294 10.3318 4.08728 10.3318 3.74982C10.3318 3.23106 10.2035 2.73578 9.94744 2.26414Z" fill="#5D14D0"/>
</svg>
