<svg width="14" height="14" viewBox="0 0 14 14" fill="none" xmlns="http://www.w3.org/2000/svg">
<g clip-path="url(#clip0_71_96)">
<path d="M11.3356 0.4375H2.66438C2.07377 0.4375 1.50736 0.672116 1.08974 1.08974C0.672116 1.50736 0.4375 2.07377 0.4375 2.66438V11.3356C0.4375 11.9262 0.672116 12.4926 1.08974 12.9103C1.50736 13.3279 2.07377 13.5625 2.66438 13.5625H11.3356C11.9262 13.5625 12.4926 13.3279 12.9103 12.9103C13.3279 12.4926 13.5625 11.9262 13.5625 11.3356V2.66438C13.5625 2.07377 13.3279 1.50736 12.9103 1.08974C12.4926 0.672116 11.9262 0.4375 11.3356 0.4375ZM2.1875 10.4781C2.24875 8.70625 4.8125 8.70625 4.86281 10.4781C4.8125 12.25 2.25094 12.25 2.1875 10.4781ZM2.1875 3.52625C2.25094 1.75438 4.8125 1.75438 4.86281 3.52625C4.8125 5.29594 2.25094 5.29813 2.1875 3.52625ZM5.66125 7C5.72469 5.22813 8.28625 5.22813 8.33875 7C8.27531 8.76969 5.72469 8.77188 5.66125 7ZM9.13719 10.4781C9.19844 8.70625 11.7513 8.70625 11.8125 10.4781C11.7513 12.25 9.19844 12.25 9.13719 10.4781ZM9.13719 3.52625C9.19844 1.75 11.7513 1.75 11.8125 3.52625C11.7513 5.29594 9.19844 5.29813 9.13719 3.52625Z" fill="#5D14D0"/>
</g>
<defs>
<clipPath id="clip0_71_96">
<rect width="14" height="14" fill="white"/>
</clipPath>
</defs>
</svg>
