<svg width="48" height="48" viewBox="0 0 48 48" fill="none" xmlns="http://www.w3.org/2000/svg">
  <path fill-rule="evenodd" clip-rule="evenodd"
    d="M22.94 4.93999C23.2213 4.65909 23.6025 4.50131 24 4.50131C24.3975 4.50131 24.7787 4.65909 25.06 4.93999L34.06 13.94C34.325 14.2243 34.4692 14.6004 34.4623 14.989C34.4555 15.3776 34.2981 15.7484 34.0232 16.0232C33.7484 16.2981 33.3776 16.4555 32.989 16.4623C32.6004 16.4692 32.2243 16.325 31.94 16.06L25.5 9.61999V33C25.5 33.3978 25.342 33.7793 25.0607 34.0607C24.7794 34.342 24.3978 34.5 24 34.5C23.6022 34.5 23.2206 34.342 22.9393 34.0607C22.658 33.7793 22.5 33.3978 22.5 33V9.61999L16.06 16.06C15.7757 16.325 15.3996 16.4692 15.011 16.4623C14.6224 16.4555 14.2516 16.2981 13.9768 16.0232C13.7019 15.7484 13.5445 15.3776 13.5377 14.989C13.5308 14.6004 13.675 14.2243 13.94 13.94L22.94 4.93999ZM6 31.5C6.39782 31.5 6.77936 31.658 7.06066 31.9393C7.34196 32.2206 7.5 32.6022 7.5 33V37.5C7.5 38.2956 7.81607 39.0587 8.37868 39.6213C8.94129 40.1839 9.70435 40.5 10.5 40.5H37.5C38.2957 40.5 39.0587 40.1839 39.6213 39.6213C40.1839 39.0587 40.5 38.2956 40.5 37.5V33C40.5 32.6022 40.658 32.2206 40.9393 31.9393C41.2206 31.658 41.6022 31.5 42 31.5C42.3978 31.5 42.7794 31.658 43.0607 31.9393C43.342 32.2206 43.5 32.6022 43.5 33V37.5C43.5 39.0913 42.8679 40.6174 41.7426 41.7426C40.6174 42.8679 39.0913 43.5 37.5 43.5H10.5C8.9087 43.5 7.38258 42.8679 6.25736 41.7426C5.13214 40.6174 4.5 39.0913 4.5 37.5V33C4.5 32.6022 4.65804 32.2206 4.93934 31.9393C5.22064 31.658 5.60218 31.5 6 31.5Z"
    fill="white" />
</svg>