<svg width="24" height="24" viewBox="0 0 24 24" fill="none" xmlns="http://www.w3.org/2000/svg">
<path d="M19.5 14.25V11.625C19.5 10.7299 19.1444 9.87145 18.5115 9.23851C17.8786 8.60558 17.0201 8.25 16.125 8.25H14.625C14.3266 8.25 14.0405 8.13147 13.8295 7.9205C13.6185 7.70952 13.5 7.42337 13.5 7.125V5.625C13.5 4.72989 13.1444 3.87145 12.5115 3.23851C11.8785 2.60558 11.0201 2.25 10.125 2.25H8.25M12 11.25V18.75M14.25 12.284C13.1203 11.9931 11.9449 11.9241 10.789 12.081C10.253 12.153 9.815 12.559 9.768 13.098C9.75609 13.2317 9.75008 13.3658 9.75 13.5C9.75 13.964 10.086 14.344 10.525 14.494L13.475 15.506C13.915 15.656 14.25 16.036 14.25 16.5C14.25 16.636 14.244 16.77 14.232 16.902C14.185 17.441 13.747 17.847 13.211 17.919C12.055 18.0743 10.8799 18.0054 9.75 17.716M10.5 2.25H5.625C5.004 2.25 4.5 2.754 4.5 3.375V20.625C4.5 21.246 5.004 21.75 5.625 21.75H18.375C18.996 21.75 19.5 21.246 19.5 20.625V11.25C19.5 8.86305 18.5518 6.57387 16.864 4.88604C15.1761 3.19821 12.8869 2.25 10.5 2.25Z" stroke="#5D14D0" stroke-width="1.5" stroke-linecap="round" stroke-linejoin="round"/>
</svg>
