<svg width="178" height="29" viewBox="0 0 178 29" fill="none" xmlns="http://www.w3.org/2000/svg">
<path d="M13.14 1.418H16.38V13.982H12.798L4.392 5.288V14H1.152V1.418H5.148L13.14 9.68V1.418ZM31.6194 2.534C33.2934 3.704 34.1934 5.486 34.1934 7.7C34.1934 11.84 31.1874 14.306 26.1474 14.306C23.9154 14.306 22.0794 13.82 20.6934 12.866C19.0194 11.714 18.1194 9.932 18.1194 7.7C18.1194 3.578 21.1254 1.112 26.1474 1.112C28.3974 1.112 30.2334 1.58 31.6194 2.534ZM26.1474 11.066C30.9534 11.066 30.9534 8.528 30.9534 7.7C30.9534 5.468 29.3334 4.334 26.1474 4.334C21.3594 4.334 21.3594 6.872 21.3594 7.7C21.3594 9.932 22.9794 11.066 26.1474 11.066ZM44.6822 1.418H48.2282L43.0802 14H39.2102L34.3322 1.418H37.8422L41.1722 10.076L44.6822 1.418ZM56.5905 1.418L62.2785 14H58.6965L57.5985 11.624L51.3705 11.606L50.2365 14H46.6005L52.5945 1.418H56.5905ZM52.8645 8.384H56.1945L54.5745 4.784L52.8645 8.384ZM66.724 10.76H74.428V14H63.484V1.418H66.724V10.76ZM88.7835 2.534C90.4575 3.704 91.3575 5.486 91.3575 7.7C91.3575 11.84 88.3515 14.306 83.3115 14.306C81.0795 14.306 79.2435 13.82 77.8575 12.866C76.1835 11.714 75.2835 9.932 75.2835 7.7C75.2835 3.578 78.2895 1.112 83.3115 1.112C85.5615 1.112 87.3975 1.58 88.7835 2.534ZM83.3115 11.066C88.1175 11.066 88.1175 8.528 88.1175 7.7C88.1175 5.468 86.4975 4.334 83.3115 4.334C78.5235 4.334 78.5235 6.872 78.5235 7.7C78.5235 9.932 80.1435 11.066 83.3115 11.066ZM107.485 1.418V4.64H101.473V14H98.2332V4.64H92.2212V1.418H107.485ZM123.288 1.418V4.64H117.276V14H114.036V4.64H108.024V1.418H123.288ZM137.651 2.534C139.325 3.704 140.225 5.486 140.225 7.7C140.225 11.84 137.219 14.306 132.179 14.306C129.947 14.306 128.111 13.82 126.725 12.866C125.051 11.714 124.151 9.932 124.151 7.7C124.151 3.578 127.157 1.112 132.179 1.112C134.429 1.112 136.265 1.58 137.651 2.534ZM132.179 11.066C136.985 11.066 136.985 8.528 136.985 7.7C136.985 5.468 135.365 4.334 132.179 4.334C127.391 4.334 127.391 6.872 127.391 7.7C127.391 9.932 129.011 11.066 132.179 11.066Z" fill="white"/>
<path d="M5.169 17.981C7.6 17.981 8.931 19.686 8.931 22.018C8.931 24.317 7.666 26.187 5.18 26.187C2.672 26.187 1.429 24.273 1.429 21.996C1.429 19.554 2.892 17.981 5.169 17.981ZM5.169 18.883C3.321 18.883 2.463 20.401 2.463 22.073C2.463 24.031 3.53 25.296 5.191 25.296C6.83 25.296 7.897 24.02 7.897 22.073C7.897 20.137 6.83 18.883 5.169 18.883ZM10.9414 20.324V21.204C11.4144 20.511 12.0084 20.17 12.8774 20.17C14.2634 20.17 14.7694 20.929 14.7694 22.227V26H13.8344V22.656C13.8344 21.754 13.7904 20.984 12.6134 20.984C11.3924 20.984 10.9964 21.908 10.9964 23.03V26H10.0614V20.324H10.9414ZM21.0247 24.207C20.7387 25.516 19.8917 26.187 18.5497 26.187C16.8777 26.187 15.8767 25.087 15.8767 23.239C15.8767 21.402 16.9437 20.159 18.5167 20.159C20.3867 20.159 21.0907 21.644 21.0907 23.283V23.415H16.8227L16.8117 23.481C16.8117 24.691 17.4827 25.417 18.5827 25.417C19.3967 25.417 19.8477 25.065 20.1117 24.207H21.0247ZM20.1227 22.656C20.0347 21.578 19.4297 20.929 18.4947 20.929C17.5817 20.929 16.9437 21.589 16.8227 22.656H20.1227ZM27.5745 20.324V21.094H26.4415V24.405C26.4415 24.922 26.4085 25.241 27.0685 25.241C27.2555 25.241 27.3765 25.23 27.5745 25.208V26.011C27.2775 26.044 27.1565 26.055 26.8595 26.055C25.4405 26.055 25.5065 25.351 25.5065 24.108V21.094H24.5495V20.324H25.5065V18.641H26.4415V20.324H27.5745ZM29.6032 18.168V19.312H28.6572V18.168H29.6032ZM29.6032 20.324V26H28.6572V20.324H29.6032ZM35.9357 23.932C35.7707 25.285 34.8687 26.165 33.4607 26.165C31.7007 26.165 30.7657 24.966 30.7657 23.239C30.7657 21.347 31.8217 20.159 33.4937 20.159C34.8797 20.159 35.7487 20.885 35.9027 22.172H34.9347C34.7697 21.369 34.2747 20.94 33.5047 20.94C32.4267 20.94 31.7447 21.798 31.7447 23.162C31.7447 24.548 32.3827 25.384 33.4387 25.384C34.2857 25.384 34.8467 24.867 34.9897 23.932H35.9357ZM41.7339 20.324L39.4789 22.381L41.8989 26H40.7109L38.7639 23.03L37.8729 23.855V26H36.9599V18.168H37.8729V22.799L40.4799 20.324H41.7339ZM47.515 24.207C47.229 25.516 46.382 26.187 45.04 26.187C43.368 26.187 42.367 25.087 42.367 23.239C42.367 21.402 43.434 20.159 45.007 20.159C46.877 20.159 47.581 21.644 47.581 23.283V23.415H43.313L43.302 23.481C43.302 24.691 43.973 25.417 45.073 25.417C45.887 25.417 46.338 25.065 46.602 24.207H47.515ZM46.613 22.656C46.525 21.578 45.92 20.929 44.985 20.929C44.072 20.929 43.434 21.589 43.313 22.656H46.613ZM51.0032 20.324V21.094H49.8702V24.405C49.8702 24.922 49.8372 25.241 50.4972 25.241C50.6842 25.241 50.8052 25.23 51.0032 25.208V26.011C50.7062 26.044 50.5852 26.055 50.2882 26.055C48.8692 26.055 48.9352 25.351 48.9352 24.108V21.094H47.9782V20.324H48.9352V18.641H49.8702V20.324H51.0032ZM53.4719 24.779V26H52.2509V24.779H53.4719ZM61.6299 17.981C64.0609 17.981 65.3919 19.686 65.3919 22.018C65.3919 24.317 64.1269 26.187 61.6409 26.187C59.1329 26.187 57.8899 24.273 57.8899 21.996C57.8899 19.554 59.3529 17.981 61.6299 17.981ZM61.6299 18.883C59.7819 18.883 58.9239 20.401 58.9239 22.073C58.9239 24.031 59.9909 25.296 61.6519 25.296C63.2909 25.296 64.3579 24.02 64.3579 22.073C64.3579 20.137 63.2909 18.883 61.6299 18.883ZM67.4024 20.324V21.204C67.8754 20.511 68.4694 20.17 69.3384 20.17C70.7244 20.17 71.2304 20.929 71.2304 22.227V26H70.2954V22.656C70.2954 21.754 70.2514 20.984 69.0744 20.984C67.8534 20.984 67.4574 21.908 67.4574 23.03V26H66.5224V20.324H67.4024ZM77.4857 24.207C77.1997 25.516 76.3527 26.187 75.0107 26.187C73.3387 26.187 72.3377 25.087 72.3377 23.239C72.3377 21.402 73.4047 20.159 74.9777 20.159C76.8477 20.159 77.5517 21.644 77.5517 23.283V23.415H73.2837L73.2727 23.481C73.2727 24.691 73.9437 25.417 75.0437 25.417C75.8577 25.417 76.3087 25.065 76.5727 24.207H77.4857ZM76.5837 22.656C76.4957 21.578 75.8907 20.929 74.9557 20.929C74.0427 20.929 73.4047 21.589 73.2837 22.656H76.5837ZM84.0354 20.324V21.094H82.9024V24.405C82.9024 24.922 82.8694 25.241 83.5294 25.241C83.7164 25.241 83.8374 25.23 84.0354 25.208V26.011C83.7384 26.044 83.6174 26.055 83.3204 26.055C81.9014 26.055 81.9674 25.351 81.9674 24.108V21.094H81.0104V20.324H81.9674V18.641H82.9024V20.324H84.0354ZM87.5601 20.159C89.2761 20.159 90.2771 21.248 90.2771 23.129C90.2771 25.054 89.2761 26.176 87.5491 26.176C85.8111 26.176 84.7771 25.054 84.7771 23.184C84.7771 21.314 85.8441 20.159 87.5601 20.159ZM87.5381 20.94C86.4381 20.94 85.7451 21.809 85.7451 23.162C85.7451 24.559 86.4161 25.384 87.5601 25.384C88.6601 25.384 89.3201 24.548 89.3201 23.151C89.3201 21.798 88.6381 20.94 87.5381 20.94ZM96.0985 20.324V26H95.2295V25.109C94.7345 25.824 94.1075 26.154 93.2715 26.154C92.0835 26.154 91.3795 25.483 91.3795 24.229V20.324H92.3145V23.976C92.3145 24.79 92.5455 25.34 93.5025 25.34C94.7345 25.34 95.1635 24.46 95.1635 23.294V20.324H96.0985ZM102.387 23.932C102.222 25.285 101.32 26.165 99.9118 26.165C98.1518 26.165 97.2168 24.966 97.2168 23.239C97.2168 21.347 98.2728 20.159 99.9448 20.159C101.331 20.159 102.2 20.885 102.354 22.172H101.386C101.221 21.369 100.726 20.94 99.9558 20.94C98.8778 20.94 98.1958 21.798 98.1958 23.162C98.1958 24.548 98.8338 25.384 99.8898 25.384C100.737 25.384 101.298 24.867 101.441 23.932H102.387ZM104.346 18.168V21.127C104.764 20.5 105.391 20.181 106.205 20.181C107.558 20.181 108.119 20.929 108.119 22.117V26H107.184V22.337C107.184 21.556 106.953 20.995 105.941 20.995C104.742 20.995 104.346 21.831 104.346 23.118V26H103.411V18.168H104.346ZM110.953 24.779V26H109.732V24.779H110.953ZM119.111 17.981C121.542 17.981 122.873 19.686 122.873 22.018C122.873 24.317 121.608 26.187 119.122 26.187C116.614 26.187 115.371 24.273 115.371 21.996C115.371 19.554 116.834 17.981 119.111 17.981ZM119.111 18.883C117.263 18.883 116.405 20.401 116.405 22.073C116.405 24.031 117.472 25.296 119.133 25.296C120.772 25.296 121.839 24.02 121.839 22.073C121.839 20.137 120.772 18.883 119.111 18.883ZM124.884 20.324V21.204C125.357 20.511 125.951 20.17 126.82 20.17C128.206 20.17 128.712 20.929 128.712 22.227V26H127.777V22.656C127.777 21.754 127.733 20.984 126.556 20.984C125.335 20.984 124.939 21.908 124.939 23.03V26H124.004V20.324H124.884ZM134.967 24.207C134.681 25.516 133.834 26.187 132.492 26.187C130.82 26.187 129.819 25.087 129.819 23.239C129.819 21.402 130.886 20.159 132.459 20.159C134.329 20.159 135.033 21.644 135.033 23.283V23.415H130.765L130.754 23.481C130.754 24.691 131.425 25.417 132.525 25.417C133.339 25.417 133.79 25.065 134.054 24.207H134.967ZM134.065 22.656C133.977 21.578 133.372 20.929 132.437 20.929C131.524 20.929 130.886 21.589 130.765 22.656H134.065ZM140.098 20.324V26.627C140.098 27.683 139.856 28.288 138.646 28.288C138.481 28.288 138.404 28.277 138.217 28.244V27.463C138.36 27.474 138.426 27.485 138.536 27.485C139.174 27.485 139.152 27.199 139.152 26.605V20.324H140.098ZM140.098 18.168V19.312H139.152V18.168H140.098ZM146.551 25.252V25.978C146.353 26.055 146.122 26.088 145.913 26.088C145.385 26.088 145.099 25.791 145.088 25.252C144.527 25.879 143.911 26.154 143.031 26.154C141.909 26.154 141.216 25.538 141.216 24.548C141.216 23.536 141.887 22.942 143.229 22.777C144.582 22.612 145.044 22.645 145.044 21.875C145.044 21.27 144.593 20.94 143.757 20.94C142.888 20.94 142.437 21.259 142.349 22.095H141.436C141.469 20.885 142.349 20.17 143.812 20.17C144.571 20.17 145.22 20.368 145.594 20.72C145.99 21.105 145.979 21.688 145.979 22.194C145.979 23.041 145.935 23.877 145.935 24.724C145.935 25.142 146.034 25.285 146.32 25.285C146.408 25.285 146.452 25.274 146.551 25.252ZM145.044 23.052C144.692 23.316 144.208 23.338 143.79 23.393C143.108 23.481 142.184 23.558 142.184 24.471C142.184 25.054 142.613 25.417 143.317 25.417C144.197 25.417 145.044 24.812 145.044 24.086V23.052ZM152.317 23.932C152.152 25.285 151.25 26.165 149.842 26.165C148.082 26.165 147.147 24.966 147.147 23.239C147.147 21.347 148.203 20.159 149.875 20.159C151.261 20.159 152.13 20.885 152.284 22.172H151.316C151.151 21.369 150.656 20.94 149.886 20.94C148.808 20.94 148.126 21.798 148.126 23.162C148.126 24.548 148.764 25.384 149.82 25.384C150.667 25.384 151.228 24.867 151.371 23.932H152.317ZM158.115 20.324L155.86 22.381L158.28 26H157.092L155.145 23.03L154.254 23.855V26H153.341V18.168H154.254V22.799L156.861 20.324H158.115ZM159.925 20.324V21.127C160.365 20.423 161.003 20.148 161.839 20.148C163.423 20.148 164.424 21.292 164.424 23.129C164.424 24.966 163.434 26.143 161.883 26.143C161.047 26.143 160.464 25.868 159.98 25.208V28.189H159.045V20.324H159.925ZM161.696 20.929C160.607 20.929 159.947 21.765 159.947 23.14C159.947 24.515 160.629 25.351 161.729 25.351C162.796 25.351 163.456 24.504 163.456 23.14C163.456 21.765 162.796 20.929 161.696 20.929ZM168.051 20.159C169.767 20.159 170.768 21.248 170.768 23.129C170.768 25.054 169.767 26.176 168.04 26.176C166.302 26.176 165.268 25.054 165.268 23.184C165.268 21.314 166.335 20.159 168.051 20.159ZM168.029 20.94C166.929 20.94 166.236 21.809 166.236 23.162C166.236 24.559 166.907 25.384 168.051 25.384C169.151 25.384 169.811 24.548 169.811 23.151C169.811 21.798 169.129 20.94 168.029 20.94ZM174.313 20.324V21.094H173.18V24.405C173.18 24.922 173.147 25.241 173.807 25.241C173.994 25.241 174.115 25.23 174.313 25.208V26.011C174.016 26.044 173.895 26.055 173.598 26.055C172.179 26.055 172.245 25.351 172.245 24.108V21.094H171.288V20.324H172.245V18.641H173.18V20.324H174.313ZM176.781 24.779V26H175.56V24.779H176.781Z" fill="white"/>
</svg>
